<?xml version="1.0" encoding="UTF-8" standalone="no"?>
<svg width="2083px" height="722px" viewBox="0 0 2083 722" version="1.1" xmlns="http://www.w3.org/2000/svg" xmlns:xlink="http://www.w3.org/1999/xlink" xmlns:sketch="http://www.bohemiancoding.com/sketch/ns">
    <!-- Generator: Sketch 3.3.3 (12081) - http://www.bohemiancoding.com/sketch -->
    <title>columns</title>
    <desc>Created with Sketch.</desc>
    <defs></defs>
    <g id="Page-1" stroke="none" stroke-width="1" fill="none" fill-rule="evenodd" sketch:type="MSPage">
        <rect id="Rectangle-1" stroke="#979797" fill="#D8D8D8" sketch:type="MSShapeGroup" x="1" y="1" width="1280" height="720" rx="8"></rect>
        <rect id="Rectangle-2" stroke="#979797" fill="#FFFFFF" sketch:type="MSShapeGroup" x="16" y="16" width="1250" height="30" rx="8"></rect>
        <rect id="Rectangle-3" stroke="#979797" fill="#FFFFFF" sketch:type="MSShapeGroup" x="16" y="61" width="1250" height="645" rx="8"></rect>
        <g id="arrow-75%" sketch:type="MSLayerGroup" transform="translate(46.000000, 85.000000)" stroke="#4990E2" stroke-width="8" stroke-linecap="square">
            <path d="M15,1 L895.876282,1" id="Line" sketch:type="MSShapeGroup"></path>
            <path id="Line-decoration-1" d="M895.876282,1 L885.076282,-2 L885.076282,4 L895.876282,1 Z"></path>
            <path d="M869.25,1 L0,1" id="Line-Copy" sketch:type="MSShapeGroup"></path>
            <path id="Line-Copy-decoration-1" d="M0,1 L10.8,4 L10.8,-2 L0,1 Z"></path>
        </g>
        <text id="75%" sketch:type="MSTextLayer" font-family="Helvetica" font-size="36" font-weight="normal" sketch:alignment="middle" fill="#1D528F">
            <tspan x="444.479492" y="132">75vw</tspan>
        </text>
        <g id="three-cols-copy" sketch:type="MSLayerGroup" transform="translate(31.000000, 201.000000)" fill="#7ED321">
            <rect id="Rectangle-4" sketch:type="MSShapeGroup" x="0" y="44" width="436.201407" height="28"></rect>
            <rect id="Rectangle-4-Copy-3" sketch:type="MSShapeGroup" x="481.37941" y="44" width="436.201407" height="28"></rect>
            <rect id="Rectangle-4-Copy-4" sketch:type="MSShapeGroup" x="958.085233" y="44" width="277.64133" height="28"></rect>
            <rect id="Rectangle-4-Copy-9" sketch:type="MSShapeGroup" x="0" y="0" width="436.201407" height="28"></rect>
            <rect id="Rectangle-4-Copy-6" sketch:type="MSShapeGroup" x="481.37941" y="0" width="436.201407" height="28"></rect>
            <rect id="Rectangle-4-Copy-7" sketch:type="MSShapeGroup" x="958.085233" y="0" width="277.64133" height="28"></rect>
            <rect id="Rectangle-4-Copy-17" sketch:type="MSShapeGroup" x="0" y="134" width="436.201407" height="28"></rect>
            <rect id="Rectangle-4-Copy-10" sketch:type="MSShapeGroup" x="481.37941" y="134" width="436.201407" height="28"></rect>
            <rect id="Rectangle-4-Copy-11" sketch:type="MSShapeGroup" x="958.085233" y="134" width="277.64133" height="28"></rect>
            <rect id="Rectangle-4-Copy-13" sketch:type="MSShapeGroup" x="0" y="90" width="436.201407" height="28"></rect>
            <rect id="Rectangle-4-Copy-14" sketch:type="MSShapeGroup" x="481.37941" y="90" width="436.201407" height="28"></rect>
            <rect id="Rectangle-4-Copy-15" sketch:type="MSShapeGroup" x="958.085233" y="90" width="277.64133" height="28"></rect>
            <rect id="Rectangle-4-Copy-33" sketch:type="MSShapeGroup" x="0" y="225" width="436.201407" height="28"></rect>
            <rect id="Rectangle-4-Copy-18" sketch:type="MSShapeGroup" x="481.37941" y="225" width="436.201407" height="28"></rect>
            <rect id="Rectangle-4-Copy-19" sketch:type="MSShapeGroup" x="958.085233" y="225" width="277.64133" height="28"></rect>
            <rect id="Rectangle-4-Copy-21" sketch:type="MSShapeGroup" x="0" y="181" width="436.201407" height="28"></rect>
            <rect id="Rectangle-4-Copy-22" sketch:type="MSShapeGroup" x="481.37941" y="181" width="436.201407" height="28"></rect>
            <rect id="Rectangle-4-Copy-23" sketch:type="MSShapeGroup" x="958.085233" y="181" width="277.64133" height="28"></rect>
            <rect id="Rectangle-4-Copy-25" sketch:type="MSShapeGroup" x="0" y="315" width="436.201407" height="28"></rect>
            <rect id="Rectangle-4-Copy-26" sketch:type="MSShapeGroup" x="481.37941" y="315" width="436.201407" height="28"></rect>
            <rect id="Rectangle-4-Copy-27" sketch:type="MSShapeGroup" x="958.085233" y="315" width="277.64133" height="28"></rect>
            <rect id="Rectangle-4-Copy-29" sketch:type="MSShapeGroup" x="0" y="271" width="436.201407" height="28"></rect>
            <rect id="Rectangle-4-Copy-30" sketch:type="MSShapeGroup" x="481.37941" y="271" width="436.201407" height="28"></rect>
            <rect id="Rectangle-4-Copy-31" sketch:type="MSShapeGroup" x="958.085233" y="271" width="277.64133" height="28"></rect>
        </g>
        <g id="three-cols-copy-3" sketch:type="MSLayerGroup" transform="translate(1280.000000, 201.000000)" fill="#7ED321">
            <rect id="Rectangle-4" sketch:type="MSShapeGroup" x="0.496100422" y="44" width="148.5039" height="28"></rect>
            <rect id="Rectangle-4-Copy-3" sketch:type="MSShapeGroup" x="190.37941" y="44" width="436.201407" height="28"></rect>
            <rect id="Rectangle-4-Copy-4" sketch:type="MSShapeGroup" x="667.085233" y="44" width="277.64133" height="28"></rect>
            <rect id="Rectangle-4-Copy-9" sketch:type="MSShapeGroup" x="0.496100422" y="0" width="148.5039" height="28"></rect>
            <rect id="Rectangle-4-Copy-6" sketch:type="MSShapeGroup" x="190.37941" y="0" width="436.201407" height="28"></rect>
            <rect id="Rectangle-4-Copy-7" sketch:type="MSShapeGroup" x="667.085233" y="0" width="277.64133" height="28"></rect>
            <rect id="Rectangle-4-Copy-17" sketch:type="MSShapeGroup" x="0.496100422" y="134" width="148.5039" height="28"></rect>
            <rect id="Rectangle-4-Copy-10" sketch:type="MSShapeGroup" x="190.37941" y="134" width="436.201407" height="28"></rect>
            <rect id="Rectangle-4-Copy-11" sketch:type="MSShapeGroup" x="667.085233" y="134" width="277.64133" height="28"></rect>
            <rect id="Rectangle-4-Copy-13" sketch:type="MSShapeGroup" x="0.496100422" y="90" width="148.5039" height="28"></rect>
            <rect id="Rectangle-4-Copy-14" sketch:type="MSShapeGroup" x="190.37941" y="90" width="436.201407" height="28"></rect>
            <rect id="Rectangle-4-Copy-15" sketch:type="MSShapeGroup" x="667.085233" y="90" width="277.64133" height="28"></rect>
            <rect id="Rectangle-4-Copy-33" sketch:type="MSShapeGroup" x="0.496100422" y="225" width="148.5039" height="28"></rect>
            <rect id="Rectangle-4-Copy-18" sketch:type="MSShapeGroup" x="190.37941" y="225" width="436.201407" height="28"></rect>
            <rect id="Rectangle-4-Copy-19" sketch:type="MSShapeGroup" x="667.085233" y="225" width="277.64133" height="28"></rect>
            <rect id="Rectangle-4-Copy-21" sketch:type="MSShapeGroup" x="0.496100422" y="181" width="148.5039" height="28"></rect>
            <rect id="Rectangle-4-Copy-22" sketch:type="MSShapeGroup" x="190.37941" y="181" width="436.201407" height="28"></rect>
            <rect id="Rectangle-4-Copy-23" sketch:type="MSShapeGroup" x="667.085233" y="181" width="277.64133" height="28"></rect>
            <rect id="Rectangle-4-Copy-25" sketch:type="MSShapeGroup" x="0.496100422" y="315" width="148.5039" height="28"></rect>
            <rect id="Rectangle-4-Copy-26" sketch:type="MSShapeGroup" x="190.37941" y="315" width="436.201407" height="28"></rect>
            <rect id="Rectangle-4-Copy-27" sketch:type="MSShapeGroup" x="667.085233" y="315" width="277.64133" height="28"></rect>
            <rect id="Rectangle-4-Copy-29" sketch:type="MSShapeGroup" x="0.496100422" y="271" width="148.5039" height="28"></rect>
            <rect id="Rectangle-4-Copy-30" sketch:type="MSShapeGroup" x="190.37941" y="271" width="436.201407" height="28"></rect>
            <rect id="Rectangle-4-Copy-31" sketch:type="MSShapeGroup" x="667.085233" y="271" width="277.64133" height="28"></rect>
        </g>
        <rect id="article-75%" stroke="#4990E2" stroke-width="4" stroke-dasharray="13,5,13,5" sketch:type="MSShapeGroup" x="31" y="182" width="919" height="378"></rect>
    </g>
</svg>